<?xml version="1.0" encoding="UTF-8"?>
<svg width="72px" height="36px" viewBox="0 0 72 36" version="1.1" xmlns="http://www.w3.org/2000/svg" xmlns:xlink="http://www.w3.org/1999/xlink">
    <!-- Generator: Sketch 57.1 (83088) - https://sketch.com -->
    <title>25 Bang for the buck</title>
    <desc>Created with Sketch.</desc>
    <g id="25-Bang-for-the-buck" stroke="none" stroke-width="1" fill="none" fill-rule="evenodd">
        <rect id="Rectangle-Copy-4" fill="#6A9BC8" x="0" y="0" width="13" height="8" rx="2"></rect>
        <rect id="Rectangle-Copy-5" fill="#93BEDA" x="14" y="0" width="14" height="8" rx="2"></rect>
        <rect id="Rectangle-Copy-6" fill="#494759" x="29" y="0" width="14" height="8" rx="2"></rect>
        <rect id="Rectangle-Copy-7" fill="#040135" x="44" y="0" width="14" height="8" rx="2"></rect>
        <rect id="Rectangle-Copy-14" fill="#F5C1C0" x="59" y="0" width="13" height="8" rx="2"></rect>
        <rect id="Rectangle-Copy-8" fill="#77A4CC" x="0" y="9" width="13" height="8" rx="2"></rect>
        <rect id="Rectangle-Copy-15" fill="#9CC3DC" x="14" y="9" width="14" height="8" rx="2"></rect>
        <rect id="Rectangle-Copy-18" fill="#5A5869" x="29" y="9" width="14" height="8" rx="2"></rect>
        <rect id="Rectangle-Copy-21" fill="#1C1948" x="44" y="9" width="14" height="8" rx="2"></rect>
        <rect id="Rectangle-Copy-24" fill="#F5C6C5" x="59" y="9" width="13" height="8" rx="2"></rect>
        <rect id="Rectangle-Copy-9" fill="#84ACCF" x="0" y="18" width="13" height="8" rx="2"></rect>
        <rect id="Rectangle-Copy-16" fill="#A5C8DE" x="14" y="18" width="14" height="8" rx="2"></rect>
        <rect id="Rectangle-Copy-19" fill="#6A6978" x="29" y="18" width="14" height="8" rx="2"></rect>
        <rect id="Rectangle-Copy-22" fill="#33315A" x="44" y="18" width="14" height="8" rx="2"></rect>
        <rect id="Rectangle-Copy-25" fill="#F4CBCA" x="59" y="18" width="13" height="8" rx="2"></rect>
        <rect id="Rectangle-Copy-10" fill="#A0BED8" x="0" y="27" width="13" height="9" rx="2"></rect>
        <rect id="Rectangle-Copy-17" fill="#AFCDE1" x="14" y="27" width="14" height="9" rx="2"></rect>
        <rect id="Rectangle-Copy-20" fill="#7B7A87" x="29" y="27" width="14" height="9" rx="2"></rect>
        <rect id="Rectangle-Copy-23" fill="#4B486C" x="44" y="27" width="14" height="9" rx="2"></rect>
        <rect id="Rectangle-Copy-26" fill="#F4D5D5" x="59" y="27" width="13" height="9" rx="2"></rect>
        <rect id="Rectangle-Copy-105" fill="#F5C1C0" fill-rule="nonzero" x="2.5" y="11" width="8" height="8"></rect>
        <rect id="Rectangle-Copy-95" fill="#FFFFFF" fill-rule="nonzero" x="61.5" y="14" width="8" height="8"></rect>
        <rect id="Rectangle-Copy-105" fill="#FFFFFF" fill-rule="nonzero" x="17" y="4" width="8" height="8"></rect>
        <rect id="Rectangle-Copy-106" fill="#F2A73B" fill-rule="nonzero" x="39.5" y="22" width="8" height="8"></rect>
    </g>
</svg>