<?xml version="1.0" encoding="UTF-8"?>
<svg width="108px" height="54px" viewBox="0 0 108 54" version="1.1" xmlns="http://www.w3.org/2000/svg" xmlns:xlink="http://www.w3.org/1999/xlink">
    <!-- Generator: Sketch 56.2 (81672) - https://sketch.com -->
    <title>Fibonacci scale</title>
    <desc>Created with Sketch.</desc>
    <g id="Fibonacci-scale" stroke="none" stroke-width="1" fill="none" fill-rule="evenodd">
        <path d="M86.16,11 L101.84,11 C103.032935,11 104,11.9670649 104,13.16 L104,18.84 C104,20.0329351 103.032935,21 101.84,21 L86.16,21 C84.9670649,21 84,20.0329351 84,18.84 L84,13.16 C84,11.9670649 84.9670649,11 86.16,11 Z" id="Rectangle-5-Copy-55" fill="#050038" fill-rule="nonzero"></path>
        <path d="M86.16,0 L101.84,0 C103.032935,-2.19138615e-16 104,0.96706494 104,2.16 L104,7.84 C104,9.03293506 103.032935,10 101.84,10 L86.16,10 C84.9670649,10 84,9.03293506 84,7.84 L84,2.16 C84,0.96706494 84.9670649,2.19138615e-16 86.16,0 Z" id="Rectangle-5-Copy-75" fill="#050038" fill-rule="nonzero"></path>
        <path d="M86.16,33 L101.84,33 C103.032935,33 104,33.9670649 104,35.16 L104,40.84 C104,42.0329351 103.032935,43 101.84,43 L86.16,43 C84.9670649,43 84,42.0329351 84,40.84 L84,35.16 C84,33.9670649 84.9670649,33 86.16,33 Z" id="Rectangle-5-Copy-57" fill="#050038" fill-rule="nonzero"></path>
        <path d="M86.16,44 L101.84,44 C103.032935,44 104,44.9670649 104,46.16 L104,51.84 C104,53.0329351 103.032935,54 101.84,54 L86.16,54 C84.9670649,54 84,53.0329351 84,51.84 L84,46.16 C84,44.9670649 84.9670649,44 86.16,44 Z" id="Rectangle-5-Copy-59" fill="#050038" fill-rule="nonzero"></path>
        <path d="M86.16,22 L101.84,22 C103.032935,22 104,22.9670649 104,24.16 L104,29.84 C104,31.0329351 103.032935,32 101.84,32 L86.16,32 C84.9670649,32 84,31.0329351 84,29.84 L84,24.16 C84,22.9670649 84.9670649,22 86.16,22 Z" id="Rectangle-5-Copy-64" fill="#050038" fill-rule="nonzero"></path>
        <path d="M23.16,22 L38.84,22 C40.0329351,22 41,22.9670649 41,24.16 L41,29.84 C41,31.0329351 40.0329351,32 38.84,32 L23.16,32 C21.9670649,32 21,31.0329351 21,29.84 L21,24.16 C21,22.9670649 21.9670649,22 23.16,22 Z" id="Rectangle-5-Copy-66" fill="#83BAD7" fill-rule="nonzero"></path>
        <path d="M44.16,22 L59.84,22 C61.0329351,22 62,22.9670649 62,24.16 L62,29.84 C62,31.0329351 61.0329351,32 59.84,32 L44.16,32 C42.9670649,32 42,31.0329351 42,29.84 L42,24.16 C42,22.9670649 42.9670649,22 44.16,22 Z" id="Rectangle-5-Copy-68" fill="#83BAD7" fill-rule="nonzero"></path>
        <path d="M65.16,11 L80.84,11 C82.0329351,11 83,11.9670649 83,13.16 L83,18.84 C83,20.0329351 82.0329351,21 80.84,21 L65.16,21 C63.9670649,21 63,20.0329351 63,18.84 L63,13.16 C63,11.9670649 63.9670649,11 65.16,11 Z" id="Rectangle-5-Copy-56" fill="#5B9CCB" fill-rule="nonzero"></path>
        <path d="M65.16,0 L80.84,0 C82.0329351,-2.19138615e-16 83,0.96706494 83,2.16 L83,7.84 C83,9.03293506 82.0329351,10 80.84,10 L65.16,10 C63.9670649,10 63,9.03293506 63,7.84 L63,2.16 C63,0.96706494 63.9670649,2.19138615e-16 65.16,0 Z" id="Rectangle-5-Copy-76" fill="#050038" fill-rule="nonzero"></path>
        <path d="M65.16,33 L80.84,33 C82.0329351,33 83,33.9670649 83,35.16 L83,40.84 C83,42.0329351 82.0329351,43 80.84,43 L65.16,43 C63.9670649,43 63,42.0329351 63,40.84 L63,35.16 C63,33.9670649 63.9670649,33 65.16,33 Z" id="Rectangle-5-Copy-58" fill="#5B9CCB" fill-rule="nonzero"></path>
        <path d="M65.16,44 L80.84,44 C82.0329351,44 83,44.9670649 83,46.16 L83,51.84 C83,53.0329351 82.0329351,54 80.84,54 L65.16,54 C63.9670649,54 63,53.0329351 63,51.84 L63,46.16 C63,44.9670649 63.9670649,44 65.16,44 Z" id="Rectangle-5-Copy-71" fill="#5B9CCB" fill-rule="nonzero"></path>
        <path d="M65.16,22 L80.84,22 C82.0329351,22 83,22.9670649 83,24.16 L83,29.84 C83,31.0329351 82.0329351,32 80.84,32 L65.16,32 C63.9670649,32 63,31.0329351 63,29.84 L63,24.16 C63,22.9670649 63.9670649,22 65.16,22 Z" id="Rectangle-5-Copy-65" fill="#5B9CCB" fill-rule="nonzero"></path>
        <path d="M2.16,22 L17.84,22 C19.0329351,22 20,22.9670649 20,24.16 L20,29.84 C20,31.0329351 19.0329351,32 17.84,32 L2.16,32 C0.96706494,32 1.4609241e-16,31.0329351 0,29.84 L0,24.16 C-1.4609241e-16,22.9670649 0.96706494,22 2.16,22 Z" id="Rectangle-5-Copy-67" fill="#83BAD7" fill-rule="nonzero"></path>
        <path d="M44.16,11 L59.84,11 C61.0329351,11 62,11.9670649 62,13.16 L62,18.84 C62,20.0329351 61.0329351,21 59.84,21 L44.16,21 C42.9670649,21 42,20.0329351 42,18.84 L42,13.16 C42,11.9670649 42.9670649,11 44.16,11 Z" id="Rectangle-5-Copy-60" fill="#5B9CCB" fill-rule="nonzero"></path>
        <path d="M44.16,0 L59.84,0 C61.0329351,-2.19138615e-16 62,0.96706494 62,2.16 L62,7.84 C62,9.03293506 61.0329351,10 59.84,10 L44.16,10 C42.9670649,10 42,9.03293506 42,7.84 L42,2.16 C42,0.96706494 42.9670649,2.19138615e-16 44.16,0 Z" id="Rectangle-5-Copy-77" fill="#050038" fill-rule="nonzero"></path>
        <path d="M44.16,33 L59.84,33 C61.0329351,33 62,33.9670649 62,35.16 L62,40.84 C62,42.0329351 61.0329351,43 59.84,43 L44.16,43 C42.9670649,43 42,42.0329351 42,40.84 L42,35.16 C42,33.9670649 42.9670649,33 44.16,33 Z" id="Rectangle-5-Copy-61" fill="#83BAD7" fill-rule="nonzero"></path>
        <path d="M44.16,44 L59.84,44 C61.0329351,44 62,44.9670649 62,46.16 L62,51.84 C62,53.0329351 61.0329351,54 59.84,54 L44.16,54 C42.9670649,54 42,53.0329351 42,51.84 L42,46.16 C42,44.9670649 42.9670649,44 44.16,44 Z" id="Rectangle-5-Copy-72" fill="#83BAD7" fill-rule="nonzero"></path>
        <path d="M23.16,11 L38.84,11 C40.0329351,11 41,11.9670649 41,13.16 L41,18.84 C41,20.0329351 40.0329351,21 38.84,21 L23.16,21 C21.9670649,21 21,20.0329351 21,18.84 L21,13.16 C21,11.9670649 21.9670649,11 23.16,11 Z" id="Rectangle-5-Copy-62" fill="#5B9CCB" fill-rule="nonzero"></path>
        <path d="M23.16,0 L38.84,0 C40.0329351,-2.19138615e-16 41,0.96706494 41,2.16 L41,7.84 C41,9.03293506 40.0329351,10 38.84,10 L23.16,10 C21.9670649,10 21,9.03293506 21,7.84 L21,2.16 C21,0.96706494 21.9670649,2.19138615e-16 23.16,0 Z" id="Rectangle-5-Copy-78" fill="#050038" fill-rule="nonzero"></path>
        <path d="M23.16,33 L38.84,33 C40.0329351,33 41,33.9670649 41,35.16 L41,40.84 C41,42.0329351 40.0329351,43 38.84,43 L23.16,43 C21.9670649,43 21,42.0329351 21,40.84 L21,35.16 C21,33.9670649 21.9670649,33 23.16,33 Z" id="Rectangle-5-Copy-69" fill="#FFA400" fill-rule="nonzero"></path>
        <path d="M23.16,44 L38.84,44 C40.0329351,44 41,44.9670649 41,46.16 L41,51.84 C41,53.0329351 40.0329351,54 38.84,54 L23.16,54 C21.9670649,54 21,53.0329351 21,51.84 L21,46.16 C21,44.9670649 21.9670649,44 23.16,44 Z" id="Rectangle-5-Copy-73" fill="#FFA400" fill-rule="nonzero"></path>
        <path d="M2.16,11 L17.84,11 C19.0329351,11 20,11.9670649 20,13.16 L20,18.84 C20,20.0329351 19.0329351,21 17.84,21 L2.16,21 C0.96706494,21 1.4609241e-16,20.0329351 0,18.84 L0,13.16 C-1.4609241e-16,11.9670649 0.96706494,11 2.16,11 Z" id="Rectangle-5-Copy-63" fill="#5B9CCB" fill-rule="nonzero"></path>
        <path d="M2.16,0 L17.84,0 C19.0329351,-2.19138615e-16 20,0.96706494 20,2.16 L20,7.84 C20,9.03293506 19.0329351,10 17.84,10 L2.16,10 C0.96706494,10 1.4609241e-16,9.03293506 0,7.84 L0,2.16 C-1.4609241e-16,0.96706494 0.96706494,2.19138615e-16 2.16,0 Z" id="Rectangle-5-Copy-79" fill="#050038" fill-rule="nonzero"></path>
        <path d="M2.16,33 L17.84,33 C19.0329351,33 20,33.9670649 20,35.16 L20,40.84 C20,42.0329351 19.0329351,43 17.84,43 L2.16,43 C0.96706494,43 1.4609241e-16,42.0329351 0,40.84 L0,35.16 C-1.4609241e-16,33.9670649 0.96706494,33 2.16,33 Z" id="Rectangle-5-Copy-70" fill="#FFA400" fill-rule="nonzero"></path>
        <path d="M2.16,44 L17.84,44 C19.0329351,44 20,44.9670649 20,46.16 L20,51.84 C20,53.0329351 19.0329351,54 17.84,54 L2.16,54 C0.96706494,54 1.4609241e-16,53.0329351 0,51.84 L0,46.16 C-1.4609241e-16,44.9670649 0.96706494,44 2.16,44 Z" id="Rectangle-5-Copy-74" fill="#FFA400" fill-rule="nonzero" opacity="0.700823103"></path>
        <rect id="Rectangle-Copy-95" fill="#FFFFFF" fill-rule="nonzero" x="7" y="38" width="10" height="10" rx="2"></rect>
        <rect id="Rectangle-Copy-96" fill="#FFFFFF" fill-rule="nonzero" x="28" y="16" width="10" height="10" rx="2"></rect>
        <rect id="Rectangle-Copy-97" fill="#FFFFFF" fill-rule="nonzero" x="49" y="38" width="10" height="10" rx="2"></rect>
        <rect id="Rectangle-Copy-98" fill="#FFFFFF" fill-rule="nonzero" x="70" y="28" width="10" height="10" rx="2"></rect>
        <rect id="Rectangle-Copy-94" fill="#FFFFFF" fill-rule="nonzero" x="87" y="5" width="10" height="10" rx="2"></rect>
    </g>
</svg>